<svg width="512" height="512" viewBox="0 0 512 512" xmlns="http://www.w3.org/2000/svg">
  <!-- Background Gradient -->
  <defs>
    <linearGradient id="bgGrad512" x1="0%" y1="0%" x2="100%" y2="100%">
      <stop offset="0%" style="stop-color:#0ea5e9;stop-opacity:1" />
      <stop offset="100%" style="stop-color:#0891b2;stop-opacity:1" />
    </linearGradient>
  </defs>
  
  <!-- Background -->
  <rect width="512" height="512" rx="112" fill="url(#bgGrad512)"/>
  
  <!-- Medical Cross -->
  <g transform="translate(256, 256)">
    <!-- Vertical bar -->
    <rect x="-40" y="-140" width="80" height="280" rx="20" fill="white" opacity="0.95"/>
    <!-- Horizontal bar -->
    <rect x="-140" y="-40" width="280" height="80" rx="20" fill="white" opacity="0.95"/>
  </g>
  
  <!-- Droplet/Water symbols -->
  <path d="M 256 100 Q 220 140, 220 170 Q 220 210, 256 220 Q 292 210, 292 170 Q 292 140, 256 100 Z" 
        fill="white" opacity="0.25"/>
  
  <path d="M 200 360 Q 185 380, 185 395 Q 185 415, 200 422 Q 215 415, 215 395 Q 215 380, 200 360 Z" 
        fill="white" opacity="0.2"/>
        
  <path d="M 312 360 Q 297 380, 297 395 Q 297 415, 312 422 Q 327 415, 327 395 Q 327 380, 312 360 Z" 
        fill="white" opacity="0.2"/>
</svg>
